<?xml version="1.0" standalone="no"?>
<!DOCTYPE svg PUBLIC "-//W3C//DTD SVG 20010904//EN"
 "http://www.w3.org/TR/2001/REC-SVG-20010904/DTD/svg10.dtd">
<svg version="1.0" xmlns="http://www.w3.org/2000/svg"
 width="200.000000pt" height="200.000000pt" viewBox="0 0 200.000000 200.000000"
 preserveAspectRatio="xMidYMid meet">
<metadata>
Created by potrace 1.11, written by Peter Selinger 2001-2013
</metadata>
<g transform="translate(0.000000,200.000000) scale(0.100000,-0.100000)"
fill="#000000" stroke="none">
<path d="M816 1975 c-216 -45 -393 -142 -538 -293 -178 -188 -266 -398 -273
-652 -7 -284 82 -513 279 -718 141 -146 367 -265 551 -290 105 -14 326 -5 407
16 449 121 752 503 756 952 1 281 -106 532 -311 729 -128 122 -323 223 -497
256 -76 14 -304 14 -374 0z m549 -150 c83 -36 188 -109 254 -175 87 -88 163
-259 122 -275 -9 -4 -71 -27 -139 -51 -123 -45 -123 -45 -153 -27 -16 10 -82
52 -147 93 l-118 74 -37 146 c-20 80 -39 157 -42 171 -6 25 -3 28 42 42 96 31
151 32 218 2z m-480 1 c91 -8 134 -17 143 -30 10 -13 57 -180 76 -271 l13 -62
-76 -61 c-42 -34 -96 -79 -121 -102 -56 -50 -73 -55 -157 -41 -37 6 -88 13
-113 16 -25 3 -52 8 -60 10 -8 2 -37 7 -65 10 -105 11 -102 9 -115 83 -18 113
-16 137 15 179 47 63 150 159 212 199 63 40 161 84 178 79 5 -2 37 -6 70 -9z
m-337 -57 c-33 -24 -151 -145 -173 -175 -17 -25 -121 -103 -109 -82 42 75 172
201 264 257 44 27 53 27 18 0z m1262 -506 c55 -86 72 -148 72 -253 0 -52 -7
-126 -15 -165 -17 -79 -56 -189 -64 -181 -3 3 -24 -7 -47 -23 -81 -55 -156
-86 -156 -63 0 4 -38 71 -84 149 l-84 141 23 79 c23 81 30 113 41 215 7 56 8
58 48 73 23 8 75 28 116 44 105 41 115 40 150 -16z m-1334 -28 c27 -3 76 -10
109 -15 33 -5 80 -12 105 -15 25 -4 65 -10 89 -14 l44 -6 58 -140 c32 -77 66
-154 76 -172 l17 -32 -69 -103 c-39 -57 -96 -138 -128 -181 l-58 -79 -48 6
c-66 8 -224 55 -234 69 -29 41 -103 211 -138 320 -47 143 -49 124 24 247 49
83 86 132 96 126 4 -3 29 -7 57 -11z m-310 -230 c24 -24 44 -51 44 -59 0 -29
73 -224 122 -326 39 -81 51 -118 54 -163 1 -31 6 -63 10 -70 9 -15 -31 19 -63
53 -73 79 -164 249 -191 360 -19 78 -36 250 -25 250 3 0 25 -20 49 -45z m1269
-261 c31 -48 73 -117 92 -155 33 -63 35 -70 23 -99 -7 -17 -47 -67 -89 -110
-70 -73 -82 -80 -151 -102 -64 -20 -97 -23 -222 -23 -169 0 -169 0 -251 101
-49 60 -67 101 -50 113 10 6 158 212 208 289 15 23 30 42 34 43 3 0 33 2 66 4
123 7 240 17 244 21 18 18 45 -6 96 -82z m-48 -518 c-18 -14 -162 -64 -207
-73 -118 -22 -245 -22 -340 -1 l-55 12 46 7 c26 4 56 12 67 18 12 6 38 8 59 5
115 -18 294 -5 388 30 50 18 65 19 42 2z"/>
</g>
</svg>
